<svg xmlns="http://www.w3.org/2000/svg" xmlns:xlink="http://www.w3.org/1999/xlink" viewBox="0 0 348.85 254.74"><defs><style>.cls-1,.cls-13{fill:#fff;}.cls-1{stroke:#0a809f;stroke-width:3.11px;}.cls-2{mask:url(#mask);}.cls-3{fill:url(#Dégradé_sans_nom_2);}.cls-4{fill:url(#Dégradé_sans_nom_2-2);}.cls-5{fill:url(#Dégradé_sans_nom_2-3);}.cls-6,.cls-8{fill:#231f20;}.cls-7{fill:#f6f7f7;stroke:#231f20;}.cls-7,.cls-8,.cls-9{stroke-miterlimit:10;}.cls-7,.cls-8{stroke-width:2.48px;}.cls-8,.cls-9{stroke:#000;}.cls-12,.cls-9{fill:none;}.cls-9{stroke-width:1.11px;}.cls-10{fill:#f5ea14;}.cls-11{fill:#ec2024;}</style><mask id="mask" x="84.36" y="38.07" width="194.79" height="191.59" maskUnits="userSpaceOnUse"><rect class="cls-1" x="123.43" y="39.62" width="154.17" height="188.49"/><path d="M93.86,98.23l-9.5,122,69.69-3.7,25.35,1.59s22.41-30.81,11.85-48.23c-5.16-8.52-1.74-15.21-2.11-23.76-.38-8.92-3.69-13.2,2.11-23.23,1.45-2.5,1.24-8.39,2.35-9.94C205,97,211.92,80.64,207.62,55.81c-.53,28-20,60.1-47,51.66S93.86,98.23,93.86,98.23Z"/></mask><linearGradient id="Dégradé_sans_nom_2" x1="100.86" y1="104.56" x2="114.99" y2="246.8" gradientUnits="userSpaceOnUse"><stop offset="0" stop-color="#489ad4"/><stop offset="1" stop-color="#1853a3"/></linearGradient><linearGradient id="Dégradé_sans_nom_2-2" x1="214.21" y1="93.3" x2="228.34" y2="235.54" xlink:href="#Dégradé_sans_nom_2"/><linearGradient id="Dégradé_sans_nom_2-3" x1="291.44" y1="85.63" x2="305.57" y2="227.87" xlink:href="#Dégradé_sans_nom_2"/></defs><title>Logo DAB</title><g id="Calque_2" data-name="Calque 2"><g id="Calque_2-2" data-name="Calque 2"><path d="M101.79,102.73c30.89,0,55.09,23,55.09,52.28A49.82,49.82,0,0,1,141,191.58a56.76,56.76,0,0,1-39.17,15.08H67.93a7.81,7.81,0,0,1-7.79-7.79V110.52a7.8,7.8,0,0,1,7.79-7.79h33.86M81.5,188.43h19.66A33.06,33.06,0,0,0,134.58,155c0-19.1-14.68-34-33.42-34H81.5v67.47M101.79,100H67.93a10.56,10.56,0,0,0-10.56,10.56v88.35a10.56,10.56,0,0,0,10.56,10.56h33.86c32.37,0,57.86-24.09,57.86-54.42,0-30.81-25.49-55-57.86-55Zm-17.52,85.7V123.73h16.89c17.2,0,30.65,13.76,30.65,31.28a30.31,30.31,0,0,1-30.65,30.65Z"/><g class="cls-2"><path d="M211.37,102.73A20.05,20.05,0,0,1,230,115.31L267,206.66H243.89L234.56,182l-.68-1.79h-46.5l-.69,1.78-9.48,24.65h-22l37.49-91.44a20.05,20.05,0,0,1,18.63-12.49m-18,61.61H228l-1.4-3.74L215.9,132.08a5.42,5.42,0,0,0-10.12,0l-10.95,28.53-1.45,3.76m18-64.38a22.88,22.88,0,0,0-21.19,14.21l-39.06,95.26h28L189.28,183H232l10,26.43h29.09L232.6,114.28A22.9,22.9,0,0,0,211.37,100Zm-14,61.61,11-28.53a2.63,2.63,0,0,1,4.93,0L224,161.57Z"/></g><path d="M307.41,102.73c20.74,0,35.23,11.53,35.23,28,0,7.84-4,15-11.35,20.26l-3.64,2.6,4,2.1c9.07,4.83,14.48,12.86,14.48,21.48,0,17.62-14.47,29.45-36,29.45H272.38l-16.47-40.78V110.52a7.8,7.8,0,0,1,7.79-7.79h43.71m-30.14,43.63h28.42c9.33,0,15.59-5.45,15.59-13.56s-6.26-13.56-15.59-13.56H277.27v27.12m0,43.79H308c9.8,0,16.38-5.77,16.38-14.35s-6.58-14.34-16.38-14.34H277.27v28.69M307.41,100H263.7a10.56,10.56,0,0,0-10.56,10.56v55.89l17.37,43h39.56c23.14,0,38.78-13,38.78-32.22,0-10-6.25-18.76-16-23.92,7.66-5.48,12.51-13.45,12.51-22.52,0-18.14-15.64-30.81-38-30.81ZM280,143.59V122h25.65c7.82,0,12.82,4.22,12.82,10.79s-5,10.79-12.82,10.79Zm0,43.79V164.23h28c8.29,0,13.61,4.54,13.61,11.57s-5.32,11.58-13.61,11.58Z"/><path class="cls-3" d="M140.82,117.46a57,57,0,0,0-39.61-15.39H67.36a8.46,8.46,0,0,0-8.45,8.45v88.35a8.46,8.46,0,0,0,8.45,8.45h33.85a57.37,57.37,0,0,0,39.62-15.26A50.44,50.44,0,0,0,157,155,51.36,51.36,0,0,0,140.82,117.46Zm-40.23,68.2H83.7V123.73h16.89c17.2,0,30.65,13.76,30.65,31.28A30.31,30.31,0,0,1,100.59,185.66Z"/><path class="cls-4" d="M230.37,115a20.79,20.79,0,0,0-38.51-.09l-14.21,34.64,9.9,31.27h45.6l.52,1.36,9.49,25.07h24.5Zm-19.81,16.28A2.6,2.6,0,0,1,213,133l10.69,28.52H197.14l11-28.54A2.59,2.59,0,0,1,210.56,131.25Z"/><path class="cls-5" d="M331.89,155.15l-3-1.6,2.77-2c7.5-5.36,11.63-12.74,11.63-20.8a25.72,25.72,0,0,0-9.83-20.57c-6.47-5.24-15.73-8.13-26.06-8.13H263.68a8.45,8.45,0,0,0-8.44,8.45v88.35a8.45,8.45,0,0,0,8.44,8.45h46.37c21.93,0,36.67-12.1,36.67-30.1C346.72,168.34,341.17,160.09,331.89,155.15ZM308,187.38H280V164.23h28c8.29,0,13.61,4.54,13.61,11.58S316.3,187.38,308,187.38Zm-2.34-43.79H280V122h25.65c7.82,0,12.82,4.23,12.82,10.79S313.49,143.59,305.67,143.59Z"/><path class="cls-6" d="M194.13,63.36,155.64,52.93,128.19,81.84l20.5,5.56a17.41,17.41,0,1,0,32.67-10.59Z"/><polygon class="cls-7" points="164.14 83.22 143.35 77.59 158.18 61.98 178.97 67.61 164.14 83.22"/><path d="M94.8,99.88c43.56,4,103.75,52.75-6.33,109.51,0,0,49,7.19,75.86-36.9,23.76,3.17,15.42,27.39,5.21,36.75,25-12.42,30.45-25.48,19.89-42.9s-8.45-32.74,2.64-49.63S212.66,83.44,207.91,56c-.53,28-23.28,60.86-49.92,51.56C124.73,95.93,94.8,99.88,94.8,99.88Z"/><path class="cls-8" d="M164.71,216c5.81,1.06,4.75,6.87,4.75,6.87Z"/><path class="cls-8" d="M75.39,217.92c2.69,2,6.29.61,9.45-6.25Z"/><path class="cls-9" d="M84.27,123.73v61.93h16.89A30.31,30.31,0,0,0,131.81,155c0-17.52-13.45-31.28-30.65-31.28Z"/><g class="cls-2"><path class="cls-9" d="M224,161.57l-10.7-28.51a2.63,2.63,0,0,0-4.93,0l-11,28.53Z"/></g><path class="cls-9" d="M280,122v21.58h25.65c7.82,0,12.82-4.22,12.82-10.79s-5-10.79-12.82-10.79Zm41.6,53.79c0-7-5.32-11.57-13.61-11.57H280v23.15h28C316.32,187.38,321.64,182.84,321.64,175.8Z"/><path class="cls-10" d="M325.83,244.3a79.13,79.13,0,0,1-25,10.43H141.2C63.23,254.75,0,195.55,0,122.51,0,89.82,12.66,59.9,33.63,36.82A123.44,123.44,0,0,0,5.48,115.08c0,71.39,61.79,129.26,138,129.25l96,0Z"/><path class="cls-11" d="M338.78,233.89a75.38,75.38,0,0,1-12.95,10.41H239.49l-96,0c-76.22,0-138-57.86-138-129.25A123.44,123.44,0,0,1,33.63,36.82l0,0c.81-.9,1.64-1.78,2.49-2.66A120.4,120.4,0,0,0,11,107.66c0,69.74,60.38,126.26,134.83,126.25h193Z"/><path class="cls-12" d="M38.33,31.35c.85-.93,1.71-1.85,2.59-2.77-.71.93-1.41,1.87-2.09,2.82-.91.9-1.8,1.8-2.67,2.71s-1.68,1.76-2.49,2.66C35.17,34.92,36.72,33.12,38.33,31.35Z"/><path d="M347.34,223.47a71.24,71.24,0,0,1-8.56,10.42h-193C71.33,233.92,11,177.4,11,107.66A120.4,120.4,0,0,1,36.16,34.11c.87-.91,1.76-1.82,2.67-2.71a117.29,117.29,0,0,0-22.39,68.83c0,68.09,58.93,123.28,131.63,123.27h69.86Z"/><path class="cls-12" d="M38.33,31.35q2.36-2.91,4.9-5.69c-.79,1-1.56,1.94-2.31,2.92s-1.41,1.87-2.09,2.82c-.91.9-1.8,1.8-2.67,2.71C36.87,33.18,37.59,32.26,38.33,31.35Z"/><path d="M20,90.85l.48-3.66.25-1.84.36-1.81.75-3.63,1-3.58c.17-.59.31-1.2.5-1.79l.59-1.75c.4-1.17.76-2.36,1.21-3.51l1.36-3.46c.44-1.15,1-2.26,1.5-3.4a115.29,115.29,0,0,1,7-13.09,105.56,105.56,0,0,1,8.78-12.08,1.07,1.07,0,0,1,1.64,1.39l0,0,0,0a102.24,102.24,0,0,0-9,11.51A114.82,114.82,0,0,0,29,62.89c-.53,1.1-1.12,2.18-1.6,3.31L25.9,69.57C25.41,70.7,25,71.86,24.57,73l-.65,1.72c-.2.58-.37,1.17-.56,1.76L22.26,80l-.87,3.58L21,85.39l-.31,1.82Z"/><path d="M49.06,29.8,36.5,28.94l3-2.92,9.14.2-4.11-5.06,2.88-1.87,6.54,4,7.32-4.21L31.66,15.7l2.95-2.78,23.62,0c2.48-3.18,3.47-3.26,4.71-2.77s1,2.08.38,3c3.83.2,6.13.34,6.13.34S88.59,3.09,93.34,1.07s9.17-.81,11,.57-2.46,5.07-8.67,8.54S83.21,17,83.21,17l4.54,1.18c2.78-3,4-2.11,4.53-1.85s.92,1.95,0,3.15c3.24,1,5.37,1.51,5.37,1.51-1.73,2.52-3,2.92-3,2.92L75.41,21.3C66.9,26.39,56.87,32.69,51.5,33.58,50.66,33.76,49.07,32.83,49.06,29.8Z"/><polygon class="cls-13" points="166.3 91.31 130.5 81.61 156.04 54.71 191.84 64.42 166.3 91.31"/><path d="M166.81,93.13,127.45,82.47,155.53,52.9l39.36,10.66ZM133.54,80.76l32.25,8.74,23-24.23-32.25-8.74Z"/><polygon points="164.22 83.88 142.96 78.12 158.12 62.15 179.38 67.91 164.22 83.88"/></g></g></svg>